<?xml version="1.0" encoding="UTF-8" standalone="no"?>
<svg width="378px" height="240px" viewBox="0 0 378 240" version="1.1" xmlns="http://www.w3.org/2000/svg" xmlns:xlink="http://www.w3.org/1999/xlink">
    <!-- Generator: Sketch 41 (35326) - http://www.bohemiancoding.com/sketch -->
    <title>gfx</title>
    <desc>Created with Sketch.</desc>
    <defs>
        <path d="M0,7.99587851 C0,3.57987675 3.58164515,0 7.9983085,0 L322.186307,0 C326.603651,0 330.184615,3.57531048 330.184615,7.99587851 L330.184615,172.004121 C330.184615,176.420123 326.60297,180 322.186307,180 L7.9983085,180 C3.58096469,180 0,176.42469 0,172.004121 L0,7.99587851 Z" id="path-1"></path>
        <mask id="mask-2" maskContentUnits="userSpaceOnUse" maskUnits="objectBoundingBox" x="0" y="0" width="330.184615" height="180" fill="white">
            <use xlink:href="#path-1"></use>
        </mask>
        <path d="M0,8.00811356 C0,3.58535456 3.58164515,0 7.9983085,0 L322.186307,0 C326.603651,0 330.184615,3.57649168 330.184615,8.00811356 L330.184615,128.991886 C330.184615,133.414645 326.60297,137 322.186307,137 L7.9983085,137 C3.58096469,137 0,133.423508 0,128.991886 L0,8.00811356 Z" id="path-3"></path>
        <mask id="mask-4" maskContentUnits="userSpaceOnUse" maskUnits="objectBoundingBox" x="0" y="0" width="330.184615" height="137" fill="white">
            <use xlink:href="#path-3"></use>
        </mask>
    </defs>
    <g id="1-main" stroke="none" stroke-width="1" fill="none" fill-rule="evenodd">
        <g id="1.0_ckeditor.com" transform="translate(-843.000000, -2939.000000)">
            <g id="features4" transform="translate(0.000000, 2857.000000)">
                <g id="gfx" transform="translate(843.000000, 82.000000)">
                    <g id="Group-5">
                        <use id="Rectangle" stroke="#477DAA" mask="url(#mask-2)" stroke-width="8" fill="#FFFFFF" xlink:href="#path-1"></use>
                        <rect id="Rectangle" fill="#BFE0FA" x="4" y="4" width="322" height="38" rx="3"></rect>
                        <path d="M3,43.0812721 L328,43.0812721" id="Line" stroke="#477DAA" stroke-width="2" stroke-linecap="square"></path>
                        <ellipse id="Oval-3" fill="#477DAA" cx="25.6061538" cy="24.2332155" rx="5.39076923" ry="5.38515901"></ellipse>
                        <ellipse id="Oval-3" fill="#477DAA" cx="45.8215385" cy="24.2332155" rx="5.39076923" ry="5.38515901"></ellipse>
                        <ellipse id="Oval-3" fill="#477DAA" cx="66.0369231" cy="24.2332155" rx="5.39076923" ry="5.38515901"></ellipse>
                        <path d="M34.2483436,93.5671378 L297.954213,93.5671378" id="Line" stroke-opacity="0.160212862" stroke="#002D52" stroke-width="5" stroke-linecap="round"></path>
                        <path d="M34.2483436,111.068905 L297.954213,111.068905" id="Line" stroke-opacity="0.160212862" stroke="#002D52" stroke-width="5" stroke-linecap="round"></path>
                        <path d="M34.2483436,128.570671 L122.007556,128.570671" id="Line" stroke-opacity="0.160212862" stroke="#002D52" stroke-width="5" stroke-linecap="round"></path>
                        <rect id="Rectangle-3" fill="#D6DDE3" x="32.3446154" y="60.5830389" width="53.9076923" height="16.155477" rx="3"></rect>
                        <rect id="Rectangle-3" fill="#D6DDE3" x="91.6430769" y="60.5830389" width="210.24" height="16.155477" rx="3"></rect>
                    </g>
                    <g id="Group-5" transform="translate(47.815385, 102.939929)">
                        <use id="Rectangle" stroke="#477DAA" mask="url(#mask-4)" stroke-width="8" fill="#FFFFFF" xlink:href="#path-3"></use>
                        <rect id="Rectangle" fill="#BFE0FA" x="4" y="4" width="322" height="38" rx="3"></rect>
                        <path d="M4.18461538,43.0812721 L327.184615,43.0812721" id="Line" stroke="#477DAA" stroke-width="2" stroke-linecap="square"></path>
                        <ellipse id="Oval-3" fill="#477DAA" cx="25.6061538" cy="24.2332155" rx="5.39076923" ry="5.38515901"></ellipse>
                        <ellipse id="Oval-3" fill="#477DAA" cx="45.8215385" cy="24.2332155" rx="5.39076923" ry="5.38515901"></ellipse>
                        <ellipse id="Oval-3" fill="#477DAA" cx="66.0369231" cy="24.2332155" rx="5.39076923" ry="5.38515901"></ellipse>
                        <path d="M34.2483436,63.4929329 L297.954213,63.4929329" id="Line" stroke-opacity="0.160212862" stroke="#002D52" stroke-width="5" stroke-linecap="round"></path>
                        <path d="M34.2483436,80.9946996 L216.958335,80.9946996" id="Line" stroke-opacity="0.160212862" stroke="#002D52" stroke-width="5" stroke-linecap="round"></path>
                        <rect id="Rectangle-3" fill="#98D25D" x="32.3446154" y="102.583039" width="22.5416572" height="16.155477" rx="3"></rect>
                        <rect id="Rectangle-3" fill="#98D25D" x="61.5161718" y="102.583039" width="22.5416572" height="16.155477" rx="3"></rect>
                        <rect id="Rectangle-3" fill="#98D25D" x="90.6877282" y="102.583039" width="157.791601" height="16.155477" rx="3"></rect>
                        <rect id="Rectangle-3" fill="#98D25D" x="256.435208" y="102.583039" width="42.4313548" height="16.155477" rx="3"></rect>
                    </g>
                </g>
            </g>
        </g>
    </g>
</svg>