<?xml version="1.0" encoding="UTF-8" standalone="no"?>
<svg width="351px" height="252px" viewBox="0 0 351 252" version="1.1" xmlns="http://www.w3.org/2000/svg" xmlns:xlink="http://www.w3.org/1999/xlink">
    <!-- Generator: Sketch 41 (35326) - http://www.bohemiancoding.com/sketch -->
    <title>gfx</title>
    <desc>Created with Sketch.</desc>
    <defs>
        <path d="M0,7.99737056 C0,3.58054476 3.57689661,0 7.9984845,0 L323.035325,0 C327.452766,0 331.033809,3.57178459 331.033809,7.99737056 L331.033809,206.836816 C331.033809,211.253642 327.456913,214.834186 323.035325,214.834186 L7.9984845,214.834186 C3.58104349,214.834186 0,211.262402 0,206.836816 L0,7.99737056 Z" id="path-1"></path>
        <mask id="mask-2" maskContentUnits="userSpaceOnUse" maskUnits="objectBoundingBox" x="0" y="0" width="331.033809" height="214.834186" fill="white">
            <use xlink:href="#path-1"></use>
        </mask>
        <path d="M0,7.99085587 C0,3.57762804 3.58437842,0 8.00647584,0 L83.1081173,0 L123.32914,36.7050546 L123.32914,140.62316 C123.32914,145.043793 119.738104,148.627425 115.332196,148.627425 L7.99694329,148.627425 C3.58035346,148.627425 0,145.045414 0,140.636569 L0,7.99085587 Z" id="path-3"></path>
        <filter x="-50%" y="-50%" width="200%" height="200%" filterUnits="objectBoundingBox" id="filter-4">
            <feOffset dx="9" dy="9" in="SourceAlpha" result="shadowOffsetInner1"></feOffset>
            <feComposite in="shadowOffsetInner1" in2="SourceAlpha" operator="arithmetic" k2="-1" k3="1" result="shadowInnerInner1"></feComposite>
            <feColorMatrix values="0 0 0 0 1   0 0 0 0 1   0 0 0 0 1  0 0 0 1 0" type="matrix" in="shadowInnerInner1"></feColorMatrix>
        </filter>
        <mask id="mask-5" maskContentUnits="userSpaceOnUse" maskUnits="objectBoundingBox" x="0" y="0" width="123.32914" height="148.627425" fill="white">
            <use xlink:href="#path-3"></use>
        </mask>
        <path d="M80.7245277,4.26902704 C80.7245277,-0.153371161 83.3578324,-1.29718504 86.590294,1.69952125 L121.359312,33.9327081 C124.598886,36.9360075 123.634233,39.3706626 119.231349,39.3706626 L88.7182574,39.3706626 C84.3034424,39.3706626 80.7245277,35.7877905 80.7245277,31.3632023 L80.7245277,4.26902704 Z" id="path-6"></path>
        <mask id="mask-7" maskContentUnits="userSpaceOnUse" maskUnits="objectBoundingBox" x="0" y="0" width="42.5532681" height="39.3411385" fill="white">
            <use xlink:href="#path-6"></use>
        </mask>
    </defs>
    <g id="1-main" stroke="none" stroke-width="1" fill="none" fill-rule="evenodd">
        <g id="1.0_ckeditor.com" transform="translate(-843.000000, -2042.000000)">
            <g id="features2" transform="translate(-2.000000, 1954.000000)">
                <g id="gfx" transform="translate(845.000000, 88.000000)">
                    <g id="Group-5">
                        <use id="Rectangle" stroke="#477DAA" mask="url(#mask-2)" stroke-width="8" fill="#FFFFFF" xlink:href="#path-1"></use>
                        <rect id="Rectangle" fill="#BFE0FA" x="4" y="4" width="323" height="39" rx="3"></rect>
                        <path d="M3.08021282,43.237069 L328.300214,43.237069" id="Line" stroke="#477DAA" stroke-width="2" stroke-linecap="square"></path>
                        <ellipse id="Oval-3" fill="#477DAA" cx="25.6720097" cy="24.3208513" rx="5.40463362" ry="5.40463362"></ellipse>
                        <ellipse id="Oval-3" fill="#477DAA" cx="45.9393858" cy="24.3208513" rx="5.40463362" ry="5.40463362"></ellipse>
                        <ellipse id="Oval-3" fill="#477DAA" cx="66.2067619" cy="24.3208513" rx="5.40463362" ry="5.40463362"></ellipse>
                        <rect id="Rectangle-3" fill="#D6DDE3" x="32.4278017" y="60.8021282" width="54.0463362" height="16.2139009" rx="3"></rect>
                        <rect id="Rectangle-3" fill="#D6DDE3" x="91.8787716" y="60.8021282" width="210.780711" height="16.2139009" rx="3"></rect>
                    </g>
                    <g id="Group-4" transform="translate(194.000000, 103.000000)">
                        <g id="Group" transform="translate(33.635220, 0.000000)">
                            <g id="Rectangle">
                                <use fill="#BEE0F9" fill-rule="evenodd" xlink:href="#path-3"></use>
                                <use fill="black" fill-opacity="1" filter="url(#filter-4)" xlink:href="#path-3"></use>
                                <use stroke="#477DAA" mask="url(#mask-5)" stroke-width="8" xlink:href="#path-3"></use>
                            </g>
                            <use id="Rectangle" stroke="#477DAA" mask="url(#mask-7)" stroke-width="8" fill="#FFFFFF" xlink:href="#path-6"></use>
                            <path d="M22.9840669,60.1138502 L100.637002,60.1138502" id="Line" stroke="#75B2E4" stroke-width="5" stroke-linecap="round"></path>
                            <path d="M22.9840669,74.5016554 L100.637002,74.5016554" id="Line" stroke="#75B2E4" stroke-width="5" stroke-linecap="round"></path>
                            <path d="M22.9840669,88.8894606 L100.637002,88.8894606" id="Line" stroke="#75B2E4" stroke-width="5" stroke-linecap="round"></path>
                            <path d="M22.9840669,103.836015 L69.2437084,103.836015" id="Line" stroke="#75B2E4" stroke-width="5" stroke-linecap="round"></path>
                        </g>
                        <g id="Group-8" transform="translate(0.000000, 21.618534)">
                            <ellipse id="Oval" fill="#FFFFFF" cx="36.3260375" cy="36.9592495" rx="36.3260375" ry="35.9780305"></ellipse>
                            <g id="Group-3" transform="translate(13.622264, 14.472980)" stroke="#6CBC88" stroke-width="4">
                                <ellipse id="Oval-2" cx="22.7037734" cy="22.4862691" rx="22.7037734" ry="22.4862691"></ellipse>
                            </g>
                        </g>
                        <text id="W" font-family="Roboto-BoldItalic, Roboto" font-size="30" font-style="italic" font-weight="bold" letter-spacing="0.449999839" fill="#6CBC88">
                            <tspan x="23.166147" y="69.1835938">W</tspan>
                        </text>
                    </g>
                    <g id="Group-7" transform="translate(35.000000, 95.000000)" stroke="#D6DDE3" stroke-width="3" stroke-linecap="round">
                        <rect id="Rectangle-4" stroke-dasharray="5,5,5,5" x="0" y="0" width="149.978583" height="95.9322468" rx="3"></rect>
                        <g id="Group-6" transform="translate(54.046336, 27.023168)">
                            <path d="M0.675579203,20.9429553 L41.412501,20.9429553" id="Line"></path>
                            <path d="M20.9429553,0 L20.9429553,40.7104027" id="Line"></path>
                        </g>
                    </g>
                </g>
            </g>
        </g>
    </g>
</svg>