<?xml version="1.0" encoding="UTF-8" standalone="no"?>
<svg width="372px" height="262px" viewBox="0 0 372 262" version="1.1" xmlns="http://www.w3.org/2000/svg" xmlns:xlink="http://www.w3.org/1999/xlink">
    <!-- Generator: Sketch 41 (35326) - http://www.bohemiancoding.com/sketch -->
    <title>gfx</title>
    <desc>Created with Sketch.</desc>
    <defs>
        <path d="M0,7.99467604 C0,3.57933838 3.58241757,0 8.00003343,0 L322.25579,0 C326.674087,0 330.255824,3.58558091 330.255824,7.99467604 L330.255824,206.334614 C330.255824,210.749951 326.673406,214.32929 322.25579,214.32929 L8.00003343,214.32929 C3.58173697,214.32929 0,210.743709 0,206.334614 L0,7.99467604 Z" id="path-1"></path>
        <mask id="mask-2" maskContentUnits="userSpaceOnUse" maskUnits="objectBoundingBox" x="0" y="0" width="330.255824" height="214.32929" fill="white">
            <use xlink:href="#path-1"></use>
        </mask>
        <path d="M0,7.99834412 C0,3.58098064 3.58527713,0 8.00016822,0 L182.065428,0 C186.483799,0 190.065597,3.57359201 190.065597,7.99834412 L190.065597,140.279781 C190.065597,144.697144 186.480319,148.278125 182.065428,148.278125 L8.00016822,148.278125 C3.58179732,148.278125 0,144.704533 0,140.279781 L0,7.99834412 Z" id="path-3"></path>
        <mask id="mask-4" maskContentUnits="userSpaceOnUse" maskUnits="objectBoundingBox" x="0" y="0" width="190.065597" height="148.278125" fill="white">
            <use xlink:href="#path-3"></use>
        </mask>
    </defs>
    <g id="1-main" stroke="none" stroke-width="1" fill="none" fill-rule="evenodd">
        <g id="1.0_ckeditor.com" transform="translate(-193.000000, -2487.000000)">
            <g id="featrues3" transform="translate(82.000000, 2441.000000)">
                <g id="gfx" transform="translate(111.000000, 46.000000)">
                    <g id="Group-9" transform="translate(41.000000, 0.000000)">
                        <g id="Group-5">
                            <use id="Rectangle" stroke="#477DAA" mask="url(#mask-2)" stroke-width="8" fill="#FFFFFF" xlink:href="#path-1"></use>
                            <rect id="Rectangle" fill="#BFE0FA" x="4" y="4" width="322" height="38" rx="3"></rect>
                            <path d="M4,43.1354545 L327,43.1354545" id="Line" stroke="#477DAA" stroke-width="2" stroke-linecap="square"></path>
                            <circle id="Oval-3" fill="#477DAA" cx="25.6116761" cy="24.2636932" r="5.39193182"></circle>
                            <circle id="Oval-3" fill="#477DAA" cx="45.8314205" cy="24.2636932" r="5.39193182"></circle>
                            <ellipse id="Oval-3" fill="#477DAA" cx="66.0511648" cy="24.2636932" rx="5.39193182" ry="5.39193182"></ellipse>
                            <rect id="Rectangle-3" fill="#D6DDE3" x="32.3515909" y="60.659233" width="53.9193182" height="16.1757955" rx="3"></rect>
                            <rect id="Rectangle-3" fill="#D6DDE3" x="32.3515909" y="95.7067898" width="53.9193182" height="36.3955398" rx="3"></rect>
                            <rect id="Rectangle-3" fill="#D6DDE3" x="91.6628409" y="60.659233" width="210.285341" height="16.1757955" rx="3"></rect>
                        </g>
                        <path d="M103.00286,99.0767472 L295.901099,99.0767472" id="Line" stroke="#FD989C" stroke-width="5" stroke-linecap="round"></path>
                        <path d="M103.00286,112.556577 L295.901099,112.556577" id="Line" stroke-opacity="0.402032382" stroke="#FD000A" stroke-width="5" stroke-linecap="round"></path>
                        <path d="M102.446705,126.710398 L249.511653,126.710398" id="Line" stroke="#FD989C" stroke-width="5" stroke-linecap="round"></path>
                        <rect id="Rectangle-3" fill="#D6DDE3" x="32.3515909" y="149.626108" width="53.9193182" height="36.3955398" rx="3"></rect>
                        <path d="M103.00286,152.996065 L295.901099,152.996065" id="Line" stroke-opacity="0.160212862" stroke="#002D52" stroke-width="5" stroke-linecap="round"></path>
                        <path d="M103.00286,166.475895 L295.901099,166.475895" id="Line" stroke-opacity="0.160212862" stroke="#002D52" stroke-width="5" stroke-linecap="round"></path>
                        <path d="M102.446705,180.629716 L249.511653,180.629716" id="Line" stroke-opacity="0.160212862" stroke="#002D52" stroke-width="5" stroke-linecap="round"></path>
                    </g>
                    <g id="Group-10" transform="translate(0.000000, 113.000000)">
                        <use id="Rectangle" stroke="#477DAA" mask="url(#mask-4)" stroke-width="8" fill="#FFFFFF" xlink:href="#path-3"></use>
                        <rect id="Rectangle-3" fill="#98D25D" x="14.8278125" y="107.838636" width="94.3588068" height="22.9157102" rx="3"></rect>
                        <rect id="Rectangle-3" fill="#D6DDE3" x="118.6225" y="107.838636" width="55.2673011" height="22.9157102" rx="3"></rect>
                        <path d="M18.8717614,24.2636932 L168.632666,24.2636932" id="Line" stroke-opacity="0.160212862" stroke="#002D52" stroke-width="5" stroke-linecap="round"></path>
                        <path d="M18.8717614,37.7435227 L168.632666,37.7435227" id="Line" stroke-opacity="0.160212862" stroke="#002D52" stroke-width="5" stroke-linecap="round"></path>
                        <path d="M18.8717614,51.2233523 L133.585109,51.2233523" id="Line" stroke-opacity="0.160212862" stroke="#002D52" stroke-width="5" stroke-linecap="round"></path>
                        <path d="M18.8717614,75.4870455 L168.632666,75.4870455" id="Line" stroke-opacity="0.160212862" stroke="#002D52" stroke-width="5" stroke-linecap="round"></path>
                        <path d="M18.8717614,88.966875 L133.585109,88.966875" id="Line" stroke-opacity="0.160212862" stroke="#002D52" stroke-width="5" stroke-linecap="round"></path>
                    </g>
                </g>
            </g>
        </g>
    </g>
</svg>